<?xml version="1.0" encoding="UTF-8"?>
<!DOCTYPE svg PUBLIC "-//W3C//DTD SVG 1.1//EN" "http://www.w3.org/Graphics/SVG/1.1/DTD/svg11.dtd">
<svg version="1.1" xmlns="http://www.w3.org/2000/svg" xmlns:xlink="http://www.w3.org/1999/xlink" x="0px" y="0px" width="410" height="325" viewBox="0, 0, 410, 325">
  <g id="Layer 1">
    <g>
      <path d="M175.586,178.528 C183.546,182.175 190.126,188.882 193.447,197.036 C199.082,186.798 207.416,179.723 218.916,177.18 C243.362,172.704 268.421,197.701 274.887,233.013 C281.352,268.324 266.776,300.579 242.329,305.055 C238.524,305.609 240.808,305.361 235.453,305.552 C231.318,305.112 230.403,305.221 226.399,303.962 C210.873,299.078 199.611,285.016 193.069,270.714 C190.859,265.881 190.631,264.805 189.032,260.008 C180.014,277.772 164.564,295.548 144.104,299.623 C139.904,300.46 139.022,300.276 134.786,300.323 C130.907,300.188 127.237,299.113 123.659,297.707 C100.875,287.78 94.029,253.053 108.368,220.143 C122.708,187.232 152.802,168.601 175.586,178.528 z" fill="#000000"/>
      <path d="M175.586,178.528 C183.546,182.175 190.126,188.882 193.447,197.036 C199.082,186.798 207.416,179.723 218.916,177.18 C243.362,172.704 268.421,197.701 274.887,233.013 C281.352,268.324 266.776,300.579 242.329,305.055 C238.524,305.609 240.808,305.361 235.453,305.552 C231.318,305.112 230.403,305.221 226.399,303.962 C210.873,299.078 199.611,285.016 193.069,270.714 C190.859,265.881 190.631,264.805 189.032,260.008 C180.014,277.772 164.564,295.548 144.104,299.623 C139.904,300.46 139.022,300.276 134.786,300.323 C130.907,300.188 127.237,299.113 123.659,297.707 C100.875,287.78 94.029,253.053 108.368,220.143 C122.708,187.232 152.802,168.601 175.586,178.528 z" fill-opacity="0" stroke="#FFFFFF" stroke-width="6" stroke-linejoin="round"/>
    </g>
    <g>
      <path d="M388.823,55.127 C411.022,81.728 395.822,126.894 365.223,151.827 C334.623,176.76 245.222,182.194 227.822,168.127 C210.423,154.06 239.49,152.66 253.823,115.127 C268.155,77.594 279.356,138.06 299.223,91.727 C319.089,45.394 326.023,107.927 344.823,79.527 C363.623,51.127 366.623,28.527 388.823,55.127 z" fill="#000000"/>
      <path d="M388.823,55.127 C411.022,81.728 395.822,126.894 365.223,151.827 C334.623,176.76 245.222,182.194 227.822,168.127 C210.423,154.06 239.49,152.66 253.823,115.127 C268.155,77.594 279.356,138.06 299.223,91.727 C319.089,45.394 326.023,107.927 344.823,79.527 C363.623,51.127 366.623,28.527 388.823,55.127 z" fill-opacity="0" stroke="#FFFFFF" stroke-width="6" stroke-linejoin="round"/>
    </g>
    <g>
      <path d="M27.214,28.359 C0.943,50.575 7.991,97.403 33.571,127.079 C59.15,156.755 145.52,177.467 164.941,166.694 C184.36,155.92 156.216,149.545 148.697,110.338 C141.178,71.13 119.803,128.389 108.399,79.614 C96.994,30.84 79.43,90.857 65.972,59.82 C52.514,28.783 53.485,6.144 27.214,28.359 L27.214,28.359 z" fill="#000000"/>
      <path d="M27.214,28.359 C0.943,50.575 7.991,97.403 33.571,127.079 C59.15,156.755 145.52,177.467 164.941,166.694 C184.36,155.92 156.216,149.545 148.697,110.338 C141.178,71.13 119.803,128.389 108.399,79.614 C96.994,30.84 79.43,90.857 65.972,59.82 C52.514,28.783 53.485,6.144 27.214,28.359 L27.214,28.359 z" fill-opacity="0" stroke="#FFFFFF" stroke-width="6" stroke-linejoin="round"/>
    </g>
    <path d="M177.125,250.101 C164.992,277.948 142.843,295.157 127.653,288.539 C112.464,281.921 109.986,253.981 122.12,226.134 C134.253,198.287 156.403,181.078 171.592,187.696 C186.781,194.314 189.259,222.254 177.125,250.101 z" fill="#FFFFFF"/>
    <path d="M260.132,235.714 C265.603,265.593 256.826,292.234 240.528,295.218 C224.231,298.202 206.584,276.4 201.113,246.521 C195.642,216.642 204.419,190.001 220.717,187.017 C237.014,184.033 254.661,205.836 260.132,235.714 z" fill="#FFFFFF"/>
    <path d="M202.873,267.395 C220.206,279.71 251.039,280.581 264.373,253.118 L263.123,289.006 L228.373,300.618 L202.873,267.395 z" fill="#000000"/>
    <path d="M170.873,267.645 C152.835,279.96 123.248,270.831 109.373,243.368 L111.173,285.256 L147.336,296.868 L170.873,267.645 z" fill="#000000"/>
    <path d="M168.374,236.609 C162.859,249.267 152.231,256.846 144.636,253.537 C137.042,250.227 135.356,237.284 140.871,224.626 C146.386,211.968 157.014,204.39 164.609,207.699 C172.203,211.008 173.889,223.951 168.374,236.609 z" fill="#000000"/>
    <path d="M127.123,208.618 C150.456,206.951 170.789,213.784 187.123,225.118 L185.873,191.118 L151.123,180.118 L127.123,208.618 z" fill="#000000"/>
    <path d="M237.877,228.916 C240.364,242.497 235.774,254.717 227.625,256.209 C219.476,257.701 210.855,247.9 208.368,234.319 C205.881,220.738 210.471,208.518 218.62,207.026 C226.769,205.534 235.391,215.335 237.877,228.916 z" fill="#000000"/>
    <path d="M195.873,225.368 C211.706,210.201 233.539,206.034 253.873,207.868 L232.123,181.368 L201.873,191.368 L195.873,225.368 z" fill="#000000"/>
    <path d="M220.349,214.356 C207.76,216.368 211.22,231.389 213.921,238.689 C214.898,233.738 215.568,219.473 220.349,214.356 z" fill="#FFFFFF"/>
    <path d="M156.873,214.784 C149.665,212.558 144.172,224.104 145.207,237.07 C146.184,232.119 152.092,219.901 156.873,214.784 z" fill="#FFFFFF"/>
  </g>
  <defs/>
</svg>
